<svg width="24" height="24" fill="none" xmlns="http://www.w3.org/2000/svg">
  <path d="M12.0025 2h-.005C6.48375 2 2 6.485 2 12c0 2.1875.705 4.215 1.90375 5.8612L2.6575 21.5763l3.84375-1.2288C8.0825 21.395 9.96875 22 12.0025 22 17.5162 22 22 17.5138 22 12c0-5.51375-4.4838-10-9.9975-10zm5.8187 14.1213c-.2412.6812-1.1987 1.2462-1.9625 1.4112-.5224.1112-1.205.2-3.5025-.7525-2.9387-1.2175-4.8312-4.2037-4.9787-4.3975-.14125-.1938-1.1875-1.5812-1.1875-3.01625 0-1.435.72875-2.13375 1.0225-2.43375.24125-.24625.64-.35875 1.0225-.35875.12375 0 .235.00625.335.01125.29375.0125.44125.03.635.49375.24125.58125.8287 2.01625.8988 2.16375.0712.1475.1425.3475.0424.54125-.0937.2-.1762.28875-.3237.45875-.1475.17-.2875.3-.435.4825-.135.1587-.2875.3288-.1175.6225.17.2875.7575 1.2462 1.6225 2.0162 1.1162.9938 2.0212 1.3113 2.345 1.4463.2412.1.5287.0763.705-.1112.2238-.2413.5-.6413.7813-1.035.1999-.2825.4525-.3176.7174-.2176.2701.0938 1.6988.8 1.9926.9463.2937.1475.4874.2175.5587.3413.07.1237.07.705-.1713 1.3875z" fill="#000" opacity=".16"/>
</svg>
