<svg width="24" height="24" fill="none" xmlns="http://www.w3.org/2000/svg">
  <path d="M12 8.3999c-1.9851 0-3.59998 1.6149-3.59998 3.6s1.61488 3.6 3.59998 3.6c1.9852 0 3.6-1.6149 3.6-3.6s-1.6148-3.6-3.6-3.6z" fill="#000"/>
  <path fill-rule="evenodd" clip-rule="evenodd" d="M2.40002 17.6106V6.3892c0-2.20324 1.78606-3.9893 3.9893-3.9893H17.6107c2.2033 0 3.9893 1.78606 3.9893 3.9893v11.2214c0 2.2032-1.786 3.9893-3.9893 3.9893H6.38932c-2.20324 0-3.9893-1.7861-3.9893-3.9893zm4.15993-7.64449C4.926 14.7018 9.29815 19.0739 14.0338 17.44c1.5962-.5506 2.8558-1.8101 3.4063-3.4062 1.6339-4.73577-2.7382-9.10792-7.47398-7.47398-1.5961.55055-2.85563 1.8102-3.40617 3.40629zM18 6.59993c.6628 0 1.2-.53725 1.2-1.2 0-.66274-.5372-1.2-1.2-1.2-.6627 0-1.2.53726-1.2 1.2 0 .66275.5373 1.2 1.2 1.2z" fill="#000"/>
</svg>
