<svg width="24" height="24" fill="none" xmlns="http://www.w3.org/2000/svg">
  <path d="M23.0768 5.1309c-.8239.36138-1.7017.60092-2.6169.71722.9415-.56215 1.6601-1.44552 1.9979-2.51028-.8778.52338-1.847.89307-2.8799 1.09938C18.7443 3.54969 17.5564 3 16.2604 3c-2.5145 0-4.5387 2.0409-4.5387 4.54287 0 .36.0304.70615.1052 1.03568-3.77582-.18415-7.11686-1.99382-9.3613-4.75056-.39184.67984-.62168 1.45798-.62168 2.29567 0 1.5729.80999 2.9672 2.01736 3.77442-.72969-.01385-1.44552-.22569-2.05198-.55938v.04985c0 2.20705 1.57429 4.04025 3.63873 4.46255-.36969.1011-.77261.1495-1.19076.1495-.29076 0-.5843-.0166-.85983-.0775.58845 1.7986 2.25828 3.1209 4.2438 3.1638-1.54522 1.2088-3.50719 1.9371-5.63117 1.9371-.37246 0-.72969-.0166-1.086913-.0623C2.93498 20.259 5.31926 20.9998 7.89047 20.9998c8.35743 0 12.92663-6.923 12.92663-12.92386 0-.20076-.0069-.39461-.0166-.58707.9014-.63968 1.6587-1.4386 2.2763-2.35797z" fill="#000"/>
</svg>
